<svg width="49" height="51" viewBox="0 0 49 51" fill="none" xmlns="http://www.w3.org/2000/svg">
<path d="M48.0287 6.36899C43.9015 2.60024 34.7524 0.163208 24.7166 0.163208C15.1587 0.163208 6.70772 2.3188 0.909158 6.23377C0.439047 6.55609 0.0727062 6.8108 0.00667059 9.86416C-0.136407 16.3923 1.84624 33.3194 23.2481 49.4541L24.5767 50.1632L25.509 49.4635C44.8433 34.887 48.3542 19.6359 48.7284 11.8389C48.8731 8.76671 48.6388 6.92715 48.0287 6.36899ZM28.7746 42.6965C29.0812 40.5959 29.1331 37.5677 27.5089 35.3445C25.3801 32.4295 22.6349 24.8275 27.564 22.1342C27.564 22.1342 30.2824 26.4454 33.938 26.8935C33.938 26.8935 34.3641 31.4783 38.7806 28.9579C39.9551 28.2818 40.3938 25.4533 39.2067 23.6562L38.2696 22.2223C38.2696 22.2223 35.8074 14.136 33.5937 11.7996C33.5937 11.7996 32.8295 7.75731 33.5937 5.87058C33.5937 5.87058 32.2352 6.68344 31.8091 7.48845C31.8091 7.48845 31.9774 5.06242 32.405 4.61433C32.405 4.61433 28.8988 5.76838 27.9838 8.83904C27.9838 8.83904 19.5705 6.23534 12.6918 13.2336C12.6918 13.2336 15.3254 12.5182 16.2593 12.8782C16.2593 12.8782 8.21868 17.5337 6.68728 23.4581C6.68728 23.4581 9.03626 21.9534 9.88844 22.2207C9.88844 22.2207 8.1039 25.5759 9.81925 30.917C2.69684 19.8418 3.02702 10.6723 3.24242 8.45854C8.4498 5.17877 16.22 3.30776 24.7134 3.30776C33.5308 3.30776 41.7616 5.31713 45.5021 8.3422C45.7741 11.0512 46.4282 26.7803 28.7746 42.6965Z" fill="black"/>
</svg>
